<svg width="800" height="600" viewBox="0 0 800 600" fill="none" xmlns="http://www.w3.org/2000/svg">
<rect width="800" height="600" fill="white"/>
<path d="M219.194 269.993C221.125 268.057 224.291 268.056 226.221 269.993L226.259 269.956C235.948 279.725 235.948 295.543 226.259 305.273L177.033 354.703C167.305 364.433 151.552 364.432 141.862 354.703C139.931 352.765 139.932 349.584 141.862 347.645L219.194 269.993Z" fill="#141020"/>
<path fill-rule="evenodd" clip-rule="evenodd" d="M584.228 349.757H564.772V342.241C560.333 347.666 553.5 351.308 544.352 351.308C524.047 351.308 512.546 334.024 512.546 313.099C512.546 292.33 524.086 275.008 544.352 275.007C553.538 275.007 560.333 278.65 564.772 283.919V249.627H584.228V349.757ZM548.792 291.749C537.945 291.749 532.115 300.544 532.115 313.099C532.115 325.654 537.945 334.45 548.792 334.45C558.095 334.449 565.044 327.63 565.044 315.192V311.162C565.044 298.607 558.095 291.787 548.792 291.787V291.749Z" fill="#141020"/>
<path fill-rule="evenodd" clip-rule="evenodd" d="M423.681 275.007C442.172 275.007 453.289 283.532 453.289 300.543V330.537C453.289 334.45 454.95 335.688 459.389 335.146V349.795C446.882 351.616 439.393 349.098 436.189 342.975C431.48 348.129 424.107 351.074 414.495 351.074C400.173 351.074 389.637 342.432 389.637 329.451L389.674 329.413C389.674 314.765 401.332 308.644 416.078 305.97L434.297 302.481V301.357C434.297 295.08 431.093 291.166 423.025 291.166C415.807 291.166 412.061 294.384 410.363 300.933L391.872 297.599C395.192 285.044 406.311 275.008 423.681 275.007ZM419.976 319.105C413.568 320.345 408.859 322.438 408.859 328.327C408.859 333.364 412.605 336.27 418.434 336.27C426.617 336.269 434.259 331.931 434.259 323.718V316.198L434.297 316.161L419.976 319.105Z" fill="#141020"/>
<path fill-rule="evenodd" clip-rule="evenodd" d="M626.578 275.007C645.067 275.008 656.185 283.533 656.185 300.543V330.537C656.185 334.45 657.846 335.688 662.285 335.146V349.795C649.778 351.616 642.286 349.098 639.082 342.975C634.373 348.128 627.001 351.073 617.391 351.074C603.069 351.074 592.529 342.432 592.529 329.451L592.567 329.413C592.567 314.766 604.225 308.644 618.97 305.97L637.193 302.481V301.357C637.193 295.08 633.988 291.166 625.922 291.166C618.703 291.166 614.957 294.384 613.259 300.933L594.768 297.599C598.088 285.044 609.206 275.007 626.578 275.007ZM622.872 319.105C616.464 320.345 611.755 322.438 611.755 328.327C611.755 333.364 615.497 336.27 621.326 336.27C629.51 336.27 637.151 331.932 637.152 323.718V316.198L637.193 316.161L622.872 319.105Z" fill="#141020"/>
<path d="M315.866 289.501H360.067V249.627H380.487V349.757H360.067V307.211H315.866V349.757H295.291V249.627H315.866V289.501Z" fill="#141020"/>
<path d="M506.56 275.976C508.49 275.976 509.882 276.132 511.272 276.249V295.351C509.033 295.08 507.372 294.924 505.018 294.924C494.866 294.924 487.104 301.202 487.104 312.516V349.757H467.652V276.404H487.104V286.708C490.308 280.276 497.528 275.977 506.56 275.976Z" fill="#141020"/>
<path d="M690 349.757H670.544V249.627H690V349.757Z" fill="#141020"/>
<path d="M166.452 245.298C176.181 235.568 191.937 235.567 201.627 245.298C203.557 247.236 203.557 250.417 201.627 252.355L124.294 330.007C122.364 331.945 119.198 331.945 117.268 330.007C107.577 320.238 107.578 304.42 117.268 294.689L166.452 245.298Z" fill="#141020"/>
</svg>
